<?xml version="1.0" encoding="utf-8"?>
<!-- Generator: Adobe Illustrator 18.0.0, SVG Export Plug-In . SVG Version: 6.00 Build 0)  -->
<!DOCTYPE svg PUBLIC "-//W3C//DTD SVG 1.1//EN" "http://www.w3.org/Graphics/SVG/1.1/DTD/svg11.dtd">
<svg version="1.1" xmlns="http://www.w3.org/2000/svg" xmlns:xlink="http://www.w3.org/1999/xlink" x="0px" y="0px"
	 viewBox="0 0 50 50" enable-background="new 0 0 50 50" xml:space="preserve">
<g id="Layer_2" display="none">
	<rect display="inline" fill="#2A7BFF" width="50" height="50"/>
</g>
<g id="Layer_1" display="none">
	<g display="inline">
		<g>
			<g>
				<path fill="#CCE3FF" d="M12.8,46.1H5.9c-0.8,0-1.3-0.5-1.6-0.7C4,44.9,3.8,44.3,4,43.7c2-9.7,10.6-16.9,20.6-17.1
					c0.2,0,0.3,0,0.5,0c0.2,0,0.3,0,0.5,0c2.4,0.1,4.8,0.5,7.1,1.4c1,0.4,2.1-0.1,2.5-1.1c0.4-1-0.1-2.1-1.1-2.5
					c-0.3-0.1-0.6-0.2-1-0.3c3.2-2.4,5.3-6.3,5.3-10.6C38.3,6,32.3,0,25,0S11.7,6,11.7,13.3c0,4.3,2.1,8.2,5.3,10.6
					c-3,1-5.8,2.5-8.2,4.5c-4.5,3.7-7.6,8.8-8.7,14.4c-0.4,1.8,0.1,3.6,1.2,5C2.5,49.2,4.1,50,5.9,50h6.9c1.1,0,2-0.9,2-2
					C14.8,47,13.9,46.1,12.8,46.1z M15.6,13.3c0-5.2,4.2-9.4,9.4-9.4s9.4,4.2,9.4,9.4c0,5-4,9.1-8.9,9.4c-0.2,0-0.3,0-0.5,0
					c-0.2,0-0.3,0-0.5,0C19.6,22.4,15.6,18.3,15.6,13.3z"/>
				<path fill="#CCE3FF" d="M48.5,33.7c-0.8-1.9-2.7-3.1-4.8-3.1h-6.1c0,0,0,0,0,0c-2.2,0-4.1,1.3-4.9,3.3c-0.1,0.3-0.2,0.6-0.4,1
					H19.6c-0.5,0-1,0.2-1.4,0.6l-3.4,3.5c-0.7,0.8-0.7,2,0,2.7l3.4,3.5c0.4,0.4,0.9,0.6,1.4,0.6H26c1.1,0,2-0.9,2-2s-0.9-2-2-2h-5.5
					l-1.5-1.5l1.5-1.5h13.4c0.9,0,1.7-0.6,1.9-1.5c0.2-0.6,0.4-1.3,0.6-2c0.2-0.5,0.7-0.8,1.2-0.8c0,0,0,0,0,0h6.1
					c0.6,0,1,0.3,1.2,0.8c0.5,1.2,1.2,3,1.2,5c0,2-0.6,3.9-1.1,5.1c-0.2,0.5-0.7,0.8-1.2,0.8c0,0,0,0,0,0h-6.2c-0.5,0-1-0.3-1.3-0.9
					c-0.2-0.6-0.4-1.2-0.6-1.9c-0.3-1-1.3-1.7-2.4-1.4c-1,0.3-1.7,1.3-1.4,2.4c0.2,0.9,0.5,1.8,0.8,2.5c0.8,2,2.7,3.3,4.9,3.3h6.2
					c0,0,0,0,0,0c2.1,0,4-1.2,4.8-3.1c0.7-1.5,1.5-4,1.5-6.6C50,37.6,49.2,35.2,48.5,33.7z"/>
				<circle fill="#CCE3FF" cx="42.1" cy="40.2" r="2"/>
			</g>
		</g>
	</g>
</g>
<g id="Layer_3">
	<g>
		<g>
			<circle fill="#CCE3FF" cx="25" cy="25" r="3.9"/>
		</g>
	</g>
	<g>
		<g>
			<circle fill="#CCE3FF" cx="36.6" cy="25" r="3.9"/>
		</g>
	</g>
	<g>
		<g>
			<circle fill="#CCE3FF" cx="13.4" cy="25" r="3.9"/>
		</g>
	</g>
	<g>
		<g>
			<path fill="#CCE3FF" d="M25,0C11.2,0,0,11.2,0,25s11.2,25,25,25s25-11.2,25-25S38.8,0,25,0z M25,46.1C13.4,46.1,3.9,36.6,3.9,25
				S13.4,3.9,25,3.9c11.6,0,21.1,9.5,21.1,21.1S36.6,46.1,25,46.1z"/>
		</g>
	</g>
</g>
</svg>
